<svg width="229" height="178" viewBox="0 0 229 178" fill="none" xmlns="http://www.w3.org/2000/svg">
<path d="M175.429 0.547546L137.96 3.21088L121.562 65.5948L152.833 112.404L186.102 126.922L155.689 79.8967L175.429 0.547546Z" fill="#FFB000" stroke="#F7FCFD" stroke-width="0.999999" stroke-linecap="square"/>
<path d="M128.735 3.9173L113.957 62.5535L137.421 107.704L113.705 95.9773L80.904 47.0382L92.2771 7.05261L128.735 3.9173Z" fill="#FFB000" stroke="#F7FCFD" stroke-width="0.999999" stroke-linecap="square"/>
<path d="M83.7249 7.77985L73.1378 44.6614L98.4586 89.1121L62.1164 65.6794L37.8972 30.3961L44.3907 11.0238L83.7249 7.77985Z" fill="#FFB000" stroke="#F7FCFD" stroke-width="0.999999" stroke-linecap="square"/>
<path d="M34.8604 11.4182L26.8475 27.77L42.005 54.9656L1.10199 15.655L34.8604 11.4182Z" fill="#FFB000" stroke="#F7FCFD" stroke-width="0.999999" stroke-linecap="square"/>
<path d="M3.03558 163.005H6.45355V138.395H3.03558V136.872H23.3286V138.395H19.9301V163.005H26.1411L31.0434 154.118H32.3715V164.548H3.03558V163.005ZM35.145 153.688C35.145 152.008 35.4509 150.459 36.0629 149.04C36.6749 147.62 37.5929 146.397 38.8168 145.368C40.0408 144.326 41.5773 143.519 43.4262 142.946C45.2752 142.36 47.4366 142.067 49.9106 142.067C52.3845 142.067 54.5395 142.36 56.3754 142.946C58.2244 143.519 59.7608 144.326 60.9848 145.368C62.2088 146.397 63.1267 147.62 63.7387 149.04C64.3507 150.459 64.6567 152.008 64.6567 153.688C64.6567 155.368 64.3507 156.917 63.7387 158.337C63.1267 159.743 62.2088 160.967 60.9848 162.008C59.7608 163.037 58.2244 163.844 56.3754 164.43C54.5395 165.003 52.3845 165.29 49.9106 165.29C47.4366 165.29 45.2752 165.003 43.4262 164.43C41.5773 163.844 40.0408 163.037 38.8168 162.008C37.5929 160.967 36.6749 159.743 36.0629 158.337C35.4509 156.917 35.145 155.368 35.145 153.688ZM49.9106 164.079C50.4054 164.079 50.8286 163.916 51.1801 163.591C51.5317 163.265 51.8181 162.705 52.0395 161.911C52.2608 161.117 52.4171 160.055 52.5082 158.727C52.6124 157.386 52.6645 155.706 52.6645 153.688C52.6645 151.657 52.6124 149.977 52.5082 148.649C52.4171 147.308 52.2608 146.24 52.0395 145.446C51.8181 144.652 51.5317 144.092 51.1801 143.766C50.8286 143.441 50.4054 143.278 49.9106 143.278C49.4028 143.278 48.9731 143.441 48.6215 143.766C48.27 144.092 47.9835 144.652 47.7621 145.446C47.5408 146.24 47.378 147.308 47.2739 148.649C47.1827 149.977 47.1371 151.657 47.1371 153.688C47.1371 155.706 47.1827 157.386 47.2739 158.727C47.378 160.055 47.5408 161.117 47.7621 161.911C47.9835 162.705 48.27 163.265 48.6215 163.591C48.9731 163.916 49.4028 164.079 49.9106 164.079ZM70.477 144.216H67.059V142.809H82.0981V155.446C82.0981 156.787 82.1371 157.887 82.2153 158.747C82.2934 159.593 82.4301 160.264 82.6254 160.758C82.8207 161.24 83.0812 161.579 83.4067 161.774C83.7322 161.956 84.1424 162.048 84.6371 162.048C85.1319 162.048 85.5681 161.943 85.9457 161.735C86.3233 161.527 86.6358 161.234 86.8832 160.856C87.1437 160.479 87.3325 160.029 87.4496 159.508C87.5799 158.988 87.645 158.421 87.645 157.809V144.216H84.7739V142.809H99.2661V163.141H102.664V164.548H87.645V162.048C87.2283 162.555 86.7205 163.011 86.1215 163.415C85.5356 163.818 84.8845 164.163 84.1684 164.45C83.4653 164.723 82.7036 164.932 81.8832 165.075C81.0759 165.218 80.2426 165.29 79.3832 165.29C77.5994 165.29 76.128 165.055 74.9692 164.587C73.8233 164.131 72.9184 163.48 72.2543 162.633C71.5903 161.774 71.128 160.739 70.8676 159.528C70.6072 158.317 70.477 156.956 70.477 155.446V144.216ZM106.942 144.216H103.543V142.809H121.747V144.216H119.129L124.461 157.438C124.735 156.722 125.034 155.941 125.36 155.094C125.685 154.235 126.011 153.369 126.336 152.497C126.675 151.624 127 150.778 127.313 149.958C127.625 149.137 127.905 148.402 128.153 147.751C128.4 147.1 128.602 146.559 128.758 146.13C128.914 145.7 129.006 145.446 129.032 145.368C129.071 145.277 129.09 145.199 129.09 145.133C129.09 144.964 128.999 144.821 128.817 144.704C128.648 144.587 128.4 144.495 128.075 144.43C127.762 144.352 127.385 144.3 126.942 144.274C126.512 144.235 126.037 144.216 125.516 144.216V142.809H134.618V144.216C134.045 144.216 133.55 144.242 133.133 144.294C132.73 144.333 132.385 144.404 132.098 144.508C131.825 144.6 131.597 144.723 131.414 144.88C131.245 145.036 131.115 145.225 131.024 145.446C130.92 145.667 130.757 146.071 130.536 146.657C130.314 147.23 130.047 147.92 129.735 148.727C129.422 149.535 129.077 150.433 128.7 151.423C128.335 152.399 127.957 153.408 127.567 154.45C127.176 155.492 126.786 156.527 126.395 157.555C126.017 158.584 125.659 159.548 125.321 160.446C124.995 161.344 124.702 162.152 124.442 162.868C124.181 163.584 123.98 164.144 123.836 164.548H115.457L106.942 144.216ZM136.082 153.473C136.082 151.729 136.441 150.153 137.157 148.747C137.873 147.341 138.862 146.143 140.125 145.153C141.401 144.163 142.905 143.402 144.637 142.868C146.382 142.334 148.27 142.067 150.301 142.067C151.864 142.067 153.276 142.223 154.539 142.536C155.816 142.848 156.942 143.278 157.918 143.825C158.908 144.359 159.754 144.997 160.457 145.739C161.174 146.481 161.76 147.282 162.215 148.141C162.684 149.001 163.029 149.906 163.25 150.856C163.472 151.794 163.582 152.738 163.582 153.688H147.918C147.918 155.68 148.003 157.301 148.172 158.551C148.355 159.801 148.635 160.785 149.012 161.501C149.403 162.204 149.898 162.686 150.497 162.946C151.109 163.206 151.844 163.337 152.704 163.337C153.797 163.337 154.826 163.2 155.789 162.926C156.753 162.653 157.612 162.269 158.368 161.774C159.136 161.266 159.774 160.661 160.282 159.958C160.789 159.242 161.135 158.441 161.317 157.555H163.153C163.023 158.766 162.651 159.854 162.039 160.817C161.428 161.768 160.614 162.575 159.598 163.239C158.595 163.903 157.411 164.411 156.043 164.762C154.689 165.114 153.205 165.29 151.59 165.29C149.051 165.29 146.812 165.029 144.872 164.508C142.944 163.975 141.33 163.206 140.028 162.204C138.726 161.188 137.743 159.951 137.079 158.493C136.414 157.022 136.082 155.348 136.082 153.473ZM153.407 151.716C153.368 150.088 153.289 148.734 153.172 147.653C153.055 146.572 152.886 145.706 152.664 145.055C152.443 144.404 152.17 143.949 151.844 143.688C151.519 143.415 151.128 143.278 150.672 143.278C150.217 143.278 149.819 143.415 149.481 143.688C149.155 143.949 148.882 144.404 148.661 145.055C148.439 145.706 148.27 146.572 148.153 147.653C148.036 148.734 147.964 150.088 147.938 151.716H153.407ZM166.922 163.141H170.34V144.216H166.922V142.809H181.961V145.309C182.378 144.801 182.873 144.352 183.446 143.962C184.019 143.558 184.65 143.219 185.34 142.946C186.043 142.66 186.792 142.445 187.586 142.301C188.394 142.145 189.227 142.067 190.086 142.067C190.985 142.067 191.792 142.178 192.508 142.399C193.224 142.62 193.836 142.926 194.344 143.317C194.852 143.695 195.236 144.15 195.497 144.684C195.77 145.205 195.907 145.772 195.907 146.383C195.907 146.969 195.757 147.523 195.457 148.044C195.171 148.564 194.767 149.02 194.247 149.411C193.739 149.801 193.14 150.114 192.45 150.348C191.76 150.57 191.024 150.68 190.243 150.68C189.461 150.68 188.726 150.57 188.036 150.348C187.345 150.114 186.74 149.801 186.219 149.411C185.711 149.02 185.308 148.564 185.008 148.044C184.709 147.523 184.559 146.969 184.559 146.383C184.559 146.084 184.598 145.791 184.676 145.505C184.767 145.205 184.885 144.925 185.028 144.665C184.754 144.795 184.435 144.997 184.071 145.27C183.719 145.531 183.387 145.856 183.075 146.247C182.762 146.637 182.495 147.093 182.274 147.614C182.066 148.122 181.961 148.675 181.961 149.274V163.141H185.75V164.548H166.922V163.141ZM198.973 160.036C198.973 159.307 199.11 158.623 199.383 157.985C199.657 157.334 200.034 156.774 200.516 156.305C200.998 155.824 201.558 155.446 202.196 155.173C202.834 154.899 203.517 154.762 204.247 154.762C204.963 154.762 205.64 154.899 206.278 155.173C206.916 155.446 207.476 155.824 207.957 156.305C208.439 156.774 208.817 157.334 209.09 157.985C209.364 158.623 209.5 159.307 209.5 160.036C209.5 160.765 209.364 161.449 209.09 162.087C208.817 162.712 208.439 163.265 207.957 163.747C207.476 164.229 206.916 164.606 206.278 164.88C205.64 165.153 204.963 165.29 204.247 165.29C203.517 165.29 202.834 165.153 202.196 164.88C201.558 164.606 200.998 164.229 200.516 163.747C200.034 163.265 199.657 162.712 199.383 162.087C199.11 161.449 198.973 160.765 198.973 160.036Z" fill="white"/>
</svg>